<?xml version="1.0" standalone="no"?>
<!DOCTYPE svg PUBLIC "-//W3C//DTD SVG 1.1//EN" "http://www.w3.org/Graphics/SVG/1.1/DTD/svg11.dtd" >
<!--
2013-9-30: Created.
-->
<svg>
<metadata>
Created by iconfont
</metadata>
<defs>

<font id="iconfont" horiz-adv-x="1024" >
  <font-face
    font-family="iconfont"
    font-weight="500"
    font-stretch="normal"
    units-per-em="1024"
    ascent="896"
    descent="-128"
  />
    <missing-glyph />
    
    <glyph glyph-name="x" unicode="x" horiz-adv-x="1001"
d="M281 543q-27 -1 -53 -1h-83q-18 0 -36.5 -6t-32.5 -18.5t-23 -32t-9 -45.5v-76h912v41q0 16 -0.5 30t-0.5 18q0 13 -5 29t-17 29.5t-31.5 22.5t-49.5 9h-133v-97h-438v97zM955 310v-52q0 -23 0.5 -52t0.5 -58t-10.5 -47.5t-26 -30t-33 -16t-31.5 -4.5q-14 -1 -29.5 -0.5
t-29.5 0.5h-32l-45 128h-439l-44 -128h-29h-34q-20 0 -45 1q-25 0 -41 9.5t-25.5 23t-13.5 29.5t-4 30v167h911zM163 247q-12 0 -21 -8.5t-9 -21.5t9 -21.5t21 -8.5q13 0 22 8.5t9 21.5t-9 21.5t-22 8.5zM316 123q-8 -26 -14 -48q-5 -19 -10.5 -37t-7.5 -25t-3 -15t1 -14.5
t9.5 -10.5t21.5 -4h37h67h81h80h64h36q23 0 34 12t2 38q-5 13 -9.5 30.5t-9.5 34.5q-5 19 -11 39h-368zM336 498v228q0 11 2.5 23t10 21.5t20.5 15.5t34 6h188q31 0 51.5 -14.5t20.5 -52.5v-227h-327z" />
    

    
    <glyph glyph-name="wancheng-copy" unicode="&#58927;" d="M511.082 859.951c-263.069 0-476.33-212.903-476.33-475.534s213.261-475.534 476.33-475.534c263.073 0 476.33 212.903 476.33 475.534 0 262.63-213.255 475.534-476.33 475.534zM772.988 498.4l-306.63-313.276c-14.106-14.413-36.99-14.413-51.094 0l-166.087 169.696c-14.115 14.414-14.115 37.788 0 52.206 14.105 14.419 36.99 14.419 51.094 0l140.541-143.585 281.072 287.169c14.115 14.418 37.001 14.418 51.105 0 14.115-14.417 14.115-37.792 0-52.21z"  horiz-adv-x="1024" />

    
    <glyph glyph-name="gantanhao" unicode="&#58894;" d="M512 891.87328c280.49408 0 507.87328-227.3792 507.87328-507.87328 0-280.49408-227.3792-507.87328-507.87328-507.87328C231.50592-123.87328 4.12672 103.50592 4.12672 384 4.12672 664.49408 231.50592 891.87328 512 891.87328zM512 210.03264c-42.47552 0-76.91264-34.42688-76.91264-76.91264 0-42.47552 34.43712-76.91264 76.91264-76.91264 42.47552 0 76.91264 34.43712 76.91264 76.91264C588.91264 175.60576 554.47552 210.03264 512 210.03264zM509.78816 270.16192c36.58752 0 66.24256 29.66528 66.24256 66.24256l0 309.1456c0 36.58752-29.65504 66.24256-66.24256 66.24256-36.58752 0-66.24256-29.66528-66.24256-66.24256l0-309.1456C443.5456 299.81696 473.20064 270.16192 509.78816 270.16192z"  horiz-adv-x="1024" />

    
    <glyph glyph-name="zhixingzhong" unicode="&#59225;" d="M509.059-39.436c-238.404 0-431.897 193.489-431.897 431.897s193.489 431.897 431.897 431.897 431.897-193.489 431.897-431.897-193.489-431.897-431.897-431.897v0zM347.101 446.446h-107.971v-107.973h107.971v107.973zM563.049 446.446h-107.973v-107.973h107.973v107.973zM778.993 446.446h-107.971v-107.973h107.971v107.973z"  horiz-adv-x="1024" />

    
    <glyph glyph-name="fangzi" unicode="&#58950;" d="M1011.21728 534.464L576.72128 873.024c-37.12 30.656-95.36 30.592-132.416 0L13.13728 534.4a36.544 36.544 0 0 1-5.632-49.856c11.648-15.36 33.088-17.984 47.808-5.824l13.952 11.52v-511.808c0-60.928 60.544-106.432 114.688-106.432h680.384c53.504 0 89.472 42.752 89.472 106.368V491.264l15.36-12.608a32.896 32.896 0 0 1 47.744 6.016 36.544 36.544 0 0 1-5.696 49.792z m-397.632-435.328v-156.16H409.48928v280.64c0 41.28 31.936 85.632 102.08 85.632 70.208 0 102.08-44.352 102.08-85.632v-124.48h-0.064z"  horiz-adv-x="1024" />

    
    <glyph glyph-name="shenpi" unicode="&#59008;" d="M516.09088 834.35008c-110.88384 0-201.09312-89.63072-201.09312-199.79776 0-70.74304 37.90848-135.95136 98.21696-171.69408l-19.59424-157.40416H229.64224c-34.16064 0-61.95712-27.68896-61.95712-61.71648V114.73408c0-34.03264 27.79648-61.72672 61.95712-61.72672h564.70016c34.17088 0 61.97248 27.68896 61.97248 61.72672V243.7376c0 34.03264-27.8016 61.71648-61.97248 61.71648h-156.20096l-19.54816 157.17888c60.53376 35.69152 98.5856 100.98176 98.5856 171.92448 0.00512 110.16192-90.20928 199.79264-201.088 199.79264zM831.78496 2.42176H192.21504a34.38592 34.38592 0 0 1 0-68.77184h639.56992a34.38592 34.38592 0 0 1 0 68.77184z"  horiz-adv-x="1024" />

    
    <glyph glyph-name="bingtu" unicode="&#59092;" d="M1189.232 355.996h-439.182v439.182c-242.028 0-439.182-196.238-439.182-439.182 0-242.028 196.238-439.182 439.182-439.182s439.182 196.238 439.182 439.182zM807.080 851.221v-439.182h439.182c0 242.944-196.238 439.182-439.182 439.182z"  horiz-adv-x="1536" />

    
    <glyph glyph-name="arrows" unicode="&#58898;" d="M576 384l-384-384 128-128 512 512-512 512-128-128z"  horiz-adv-x="1024" />

    
    <glyph glyph-name="fewer" unicode="&#58899;" d="M192 832a128 128 0 0 1-128-128v-640a128 128 0 0 1 128-128h640a128 128 0 0 1 128 128V704a128 128 0 0 1-128 128H192z m0 64h640a192 192 0 0 0 192-192v-640a192 192 0 0 0-192-192H192a192 192 0 0 0-192 192V704a192 192 0 0 0 192 192z m384-512l192-192V576L576 384zM448 384L256 576v-384l192 192z"  horiz-adv-x="1024" />

    
    <glyph glyph-name="expand" unicode="&#58900;" d="M192 832a128 128 0 0 1-128-128v-640a128 128 0 0 1 128-128h640a128 128 0 0 1 128 128V704a128 128 0 0 1-128 128H192z m0 64h640a192 192 0 0 0 192-192v-640a192 192 0 0 0-192-192H192a192 192 0 0 0-192 192V704a192 192 0 0 0 192 192z m576-512L576 576v-384l192 192zM256 384l192-192V576L256 384z"  horiz-adv-x="1024" />

    
    <glyph glyph-name="exit" unicode="&#58901;" d="M512 474.496L149.952 836.544 59.52 746.048 421.504 384 59.456 21.952l90.496-90.496L512 293.504l362.048-362.048 90.496 90.496L602.496 384l362.048 362.048L874.048 836.48z"  horiz-adv-x="1024" />

    
    <glyph glyph-name="calendar" unicode="&#58902;" d="M796.444444 782.222222h56.888889a113.777778 113.777778 0 0 0 113.777778-113.777778v-682.666666a113.777778 113.777778 0 0 0-113.777778-113.777778H170.666667a113.777778 113.777778 0 0 0-113.777778 113.777778V668.444444a113.777778 113.777778 0 0 0 113.777778 113.777778h56.888889V896h113.777777v-113.777778h341.333334V896h113.777777v-113.777778zM170.666667 497.777778v-512h682.666666V497.777778H170.666667z m455.111111-113.777778h113.777778v-113.777778h-113.777778V384zM455.111111 384h113.777778v-113.777778H455.111111V384z m170.666667-170.666667h113.777778v-113.777777h-113.777778v113.777777z m-170.666667 0h113.777778v-113.777777H455.111111v113.777777z m-170.666667 0h113.777778v-113.777777H284.444444v113.777777z"  horiz-adv-x="1024" />

    
    <glyph glyph-name="back" unicode="&#58903;" d="M232.727273 896h558.545454a232.727273 232.727273 0 0 0 232.727273-232.727273v-558.545454a232.727273 232.727273 0 0 0-232.727273-232.727273H232.727273a232.727273 232.727273 0 0 0-232.727273 232.727273V663.272727a232.727273 232.727273 0 0 0 232.727273 232.727273z m438.178909-711.819636L471.086545 384l199.819637 199.819636L605.090909 649.634909 339.456 384 605.090909 118.365091l65.815273 65.815273z"  horiz-adv-x="1024" />

    
    <glyph glyph-name="find" unicode="&#58904;" d="M645.500542 250.170061a292.474912 292.474912 0 1 1-413.559525 413.559525 292.474912 292.474912 0 0 1 413.559525-413.559525z m43.944355-146.529931a436.518806 436.518806 0 0 0-561.55183 664.210525 436.372568 436.372568 0 0 0 664.137406-561.624949 70.70581 70.70581 0 0 0 3.948411-3.655937l206.633525-206.633525a72.241303 72.241303 0 0 0-0.438712-102.366219 72.753134 72.753134 0 0 0-102.366219-0.511831l-206.706644 206.633525a73.045609 73.045609 0 0 0-3.655937 3.948411z"  horiz-adv-x="1024" />

    
    <glyph glyph-name="plus" unicode="&#58905;" d="M438.857143 457.142857H73.654857C32.914286 457.142857 0 424.374857 0 384c0-40.667429 32.914286-73.142857 73.654857-73.142857H438.857143v-365.202286C438.857143-95.085714 471.625143-128 512-128c40.667429 0 73.142857 32.914286 73.142857 73.654857V310.857143h365.202286C991.085714 310.857143 1024 343.625143 1024 384c0 40.667429-32.914286 73.142857-73.654857 73.142857H585.142857V822.345143C585.142857 863.085714 552.374857 896 512 896c-40.667429 0-73.142857-32.914286-73.142857-73.654857V457.142857z"  horiz-adv-x="1024" />

    
    <glyph glyph-name="remind" unicode="&#58906;" d="M837.667236 104.887653V477.175816a325.891751 325.891751 0 0 1-233.610823 312.535913 93.072041 93.072041 0 1 1-184.282641 0A325.891751 325.891751 0 0 1 186.16295 477.175816v-372.288163H139.62693a46.53602 46.53602 0 0 1 0-93.072041h744.576326a46.53602 46.53602 0 0 1 0 93.072041h-46.53602z m-457.449081-139.608061a139.654597 139.654597 0 0 1 263.393876 0H380.218155z"  horiz-adv-x="1024" />

    
    <glyph glyph-name="system" unicode="&#58907;" d="M256-128v12.544c0 28.416 23.36 51.456 50.944 51.456h98.368L448 64h128l42.688-128h98.368c28.16 0 50.944-23.552 50.944-51.456V-128H256zM128 896h768a128 128 0 0 0 128-128v-512a128 128 0 0 0-128-128H128a128 128 0 0 0-128 128V768a128 128 0 0 0 128 128z m0-64a64 64 0 0 1-64-64v-512a64 64 0 0 1 64-64h768a64 64 0 0 1 64 64V768a64 64 0 0 1-64 64H128z m-25.6-89.344c0 28.16 22.784 50.944 51.2 50.944h716.8c28.288 0 51.2-22.784 51.2-50.944v-461.312c0-28.16-22.784-50.944-51.2-50.944H153.6a51.072 51.072 0 0 0-51.2 50.944V742.656z"  horiz-adv-x="1024" />

    
    <glyph glyph-name="upload" unicode="&#58908;" d="M597.472633-128H341.556659a341.221299 341.221299 0 0 0-83.94044 672.035348A383.873961 383.873961 0 0 0 1021.696013 554.442598H1023.999257a341.221299 341.221299 0 1 0 0-682.442598H768.083283V127.915974h170.610649L682.777958 469.137273 426.861984 127.915974h170.610649v-255.915974z"  horiz-adv-x="1365" />

    
    <glyph glyph-name="triangle" unicode="&#58909;" d="M512 256l256 256H256z"  horiz-adv-x="1024" />

    
    <glyph glyph-name="refresh" unicode="&#58910;" d="M1016.905143 457.142857c-32.914286 167.204571-176.64 292.571429-348.16 292.571429a348.891429 348.891429 0 0 1-250.660572-106.496L313.344 745.398857A495.104 495.104 0 0 0 668.672 896c253.074286 0 461.750857-191.049143 496.566857-438.857143H1316.571429l-219.428572-292.571428-219.428571 292.571428h139.190857zM299.666286 310.857143c32.914286-167.204571 176.64-292.571429 348.16-292.571429a348.891429 348.891429 0 0 1 250.660571 106.496l104.740572-102.180571A495.104 495.104 0 0 0 647.899429-128c-253.074286 0-461.750857 191.049143-496.566858 438.857143H0l219.428571 292.571428 219.428572-292.571428H299.666286z"  horiz-adv-x="1316" />

    
    <glyph glyph-name="role" unicode="&#58911;" d="M146.285714 896h877.714286a146.285714 146.285714 0 0 0 146.285714-146.285714v-731.428572a146.285714 146.285714 0 0 0-146.285714-146.285714H146.285714a146.285714 146.285714 0 0 0-146.285714 146.285714V749.714286a146.285714 146.285714 0 0 0 146.285714 146.285714z m219.428572-585.142857a146.285714 146.285714 0 1 1 0 292.571428 146.285714 146.285714 0 0 1 0-292.571428z m-206.994286-146.285714h413.988571a219.501714 219.501714 0 0 1-413.988571 0zM731.428571 530.285714v-73.142857h292.571429V530.285714h-292.571429z m0-219.428571v-73.142857h292.571429V310.857143h-292.571429z"  horiz-adv-x="1170" />

    
    <glyph glyph-name="architecture" unicode="&#58912;" d="M544 352h320V192h64V416h-384V576h-64v-160h-384V192h64V352h320V192h64V352zM320 896h384v-256H320V896z m64-768h256v-256H384v256z m-384 0h256v-256H0v256z m768 0h256v-256h-256v256z"  horiz-adv-x="1024" />

    
    <glyph glyph-name="people" unicode="&#58913;" d="M512 384a256 256 0 1 0 0 512 256 256 0 0 0 0-512z m-512-512c31.744 252.544 248.896 448 512 448 263.104 0 480.256-195.456 512-448H0z"  horiz-adv-x="1024" />

    
    <glyph glyph-name="analyze" unicode="&#58914;" d="M64 448h128a64 64 0 0 0 64-64v-256a64 64 0 0 0-64-64H64a64 64 0 0 0-64 64V384a64 64 0 0 0 64 64z m384 448h128a64 64 0 0 0 64-64v-704a64 64 0 0 0-64-64H448a64 64 0 0 0-64 64V832a64 64 0 0 0 64 64z m384-256h128a64 64 0 0 0 64-64v-448a64 64 0 0 0-64-64h-128a64 64 0 0 0-64 64V576a64 64 0 0 0 64 64zM0-64h1024v-64H0v64z"  horiz-adv-x="1024" />

    
    <glyph glyph-name="archives" unicode="&#58915;" d="M960 575.744c35.84-2.816 64-28.48 64-65.28v-502.784c0-39.616-31.616-71.68-70.592-71.68H70.592C31.616-64 0-31.936 0 7.68V760.32C0 799.936 31.616 832 70.592 832H204.8c28.288 0 53.76-16.832 64.96-42.88l8.768-21.12h610.88C928.384 768 960 736.384 960 697.408v-121.664zM650.304 576H896V697.408A6.592 6.592 0 0 1 889.408 704H305.024l32.384-78.144c9.344-29.696 36.48-49.856 67.2-49.856h245.76zM192 64a64 64 0 1 1 0 128 64 64 0 0 1 0-128z"  horiz-adv-x="1024" />

    
    <glyph glyph-name="type" unicode="&#58916;" d="M494.592 832l-64-64H140.8A76.8 76.8 0 0 1 64 691.2v-678.4A76.8 76.8 0 0 1 140.8-64h678.4a76.8 76.8 0 0 1 76.8 76.8V328.32l64 64V0a128 128 0 0 0-128-128H128a128 128 0 0 0-128 128V704a128 128 0 0 0 128 128h366.592z m477.184 14.848a160 160 0 0 0 0-226.24l-67.84-67.904-226.304 226.304 67.84 67.84a160 160 0 0 0 226.304 0zM632.384 733.696l226.24-226.24-427.84-427.84-184.128-31.872a64 64 0 0 0-73.984 73.984l31.808 184.128 427.904 427.84z"  horiz-adv-x="1024" />

    
    <glyph glyph-name="Audit" unicode="&#58917;" d="M815.296-63.296A128 128 0 0 0 704-128H128a128 128 0 0 0-128 128V640a128 128 0 0 0 64.704 111.296A160 160 0 0 0 224 896h576A160 160 0 0 0 960 736v-640a160 160 0 0 0-144.704-159.296zM832 5.44a96 96 0 0 1 64 90.56v640A96 96 0 0 1 800 832h-576a96 96 0 0 1-90.56-64H704a128 128 0 0 0 128-128v-634.56zM269.248 397.248L178.752 306.752 384 101.504l301.248 301.248-90.496 90.496L384 282.496 269.248 397.248z"  horiz-adv-x="1024" />

    
    <glyph glyph-name="import" unicode="&#58918;" d="M896 320h-64V736A96 96 0 0 1 736 832h-576A96 96 0 0 1 64 736v-704A96 96 0 0 1 160-64H640v-64H160A160 160 0 0 0 0 32v704A160 160 0 0 0 160 896h576A160 160 0 0 0 896 736V320zM288 640h320a32 32 0 0 0 0-64h-320a32 32 0 0 0 0 64z m0-256h320a32 32 0 0 0 0-64h-320a32 32 0 0 0 0 64z m544-320v96a32 32 0 1 0 64 0V64h96a32 32 0 1 0 0-64H896v-96a32 32 0 1 0-64 0V0h-96a32 32 0 1 0 0 64H832z"  horiz-adv-x="1024" />

    
    <glyph glyph-name="download" unicode="&#58919;" d="M512.132171-18.710819V415.978423a31.995381 31.995381 0 0 0 63.990761 0v-434.689242l73.333412 73.397404a31.995381 31.995381 0 0 0 45.30546-45.305459l-127.981523-127.981523a31.995381 31.995381 0 0 0-45.305459 0l-127.981523 127.981523a31.995381 31.995381 0 0 0 45.305459 45.305459L512.132171-18.710819zM704.104455 192.010758v63.990762h95.986142a159.976903 159.976903 0 0 1 68.406124 304.596024l-35.194919 16.701588-1.343806 38.906383a223.967665 223.967665 0 0 1-417.987653 103.473061l-29.883686-51.832516-53.752239 26.364193A95.986142 95.986142 0 0 1 192.370336 614.349783l-2.431649-37.562577-34.043085-16.061681A159.976903 159.976903 0 0 1 224.173745 256.00152H384.150648v-63.990762H224.173745a223.967665 223.967665 0 0 0-95.666189 426.562415A159.976903 159.976903 0 0 0 358.554343 751.673957a287.958426 287.958426 0 0 0 537.330423-133.164774A223.967665 223.967665 0 0 0 800.090597 192.010758H704.104455z"  horiz-adv-x="1024" />

    
    <glyph glyph-name="jijiangjiezhi" unicode="&#58982;" d="M791.471063 630.164492c-71.16583 71.128991-169.574117 115.131157-278.177604 115.131158-108.635209 0-207.005634-44.033889-278.17658-115.199719-71.16583-71.134107-115.200742-169.510672-115.200742-278.140765 0-108.673072 44.034912-207.012797 115.131157-278.177603l0.069585 0.064468c71.170946-71.16583 169.535231-115.232464 278.17658-115.232464 108.60451 0 207.012797 44.066635 278.177604 115.167996 71.096245 71.16583 115.099435 169.505555 115.099434 278.177603 0 108.630093-44.004213 207.006657-115.169019 278.140765l0.069585 0.068561z m-82.691328-313.968761H511.058558c-15.521508 0-28.713972 9.887184-33.663704 23.689539a36.253692 36.253692 0 0 0-2.287089 12.667507V523.591245c0 19.732413 16.027022 35.759435 35.791158 35.759435 19.694551 0 35.759435-16.027022 35.759435-35.759435v-135.876643h162.122401c19.765159 0 35.759435-15.994276 35.759435-35.759436-0.001023-19.732413-15.995299-35.759435-35.760459-35.759435zM263.957741 746.347608c15.332197 12.465916 17.636682 35.021631 5.205558 50.322106-12.472056 15.32708-34.95614 17.668405-50.28936 5.239328l-138.320298-112.379487c-15.32708-12.465916-18.085914-35.33681-5.655814-50.669006 12.467963-15.332197 34.989909-17.668405 50.322106-5.201466l138.737808 112.688525zM945.959599 690.898739L807.675116 803.277202c-15.359826 12.429077-37.854143 10.087753-50.284243-5.239328-12.504802-15.300474-10.131755-37.85619 5.16872-50.322105l138.770553-112.687502c15.295358-12.465916 37.861306-10.129708 50.291407 5.201465 12.429077 15.332197 9.701966 38.202067-5.661954 50.669007z"  horiz-adv-x="1024" />

    
    <glyph glyph-name="clock" unicode="&#58920;" d="M512-14.222222A398.222222 398.222222 0 1 1 512 782.222222a398.222222 398.222222 0 0 1 0-796.444444z m56.888889 421.774222V611.555556a56.888889 56.888889 0 1 1-113.777778 0v-227.555556c0-15.701333 6.371556-29.923556 16.668445-40.220444L602.225778 213.333333A56.888889 56.888889 0 0 1 682.666667 293.774222l-113.777778 113.777778zM512-128A512 512 0 1 0 512 896a512 512 0 0 0 0-1024z"  horiz-adv-x="1024" />

    
    <glyph glyph-name="qr_code" unicode="&#58921;" d="M51.2 844.8v-921.6h921.6V844.8H51.2z m819.2-819.2h-102.4v-51.2h153.6v153.6h-51.2v-102.4z m0 563.2h-51.2v-51.2h102.4V640h-51.2v-51.2z m-102.4 51.2v-51.2h51.2V640h51.2V691.2h-102.4v-51.2zM102.4 742.4v-307.2h51.2V742.4h307.2V793.6H102.4v-51.2zM0 896h1024v-1024H0V896z m563.2-153.6h204.8V793.6h-204.8v-51.2z m256-51.2h102.4V793.6h-102.4v-102.4zM102.4 384h409.6V435.2H102.4v-51.2z m358.4 51.2h51.2V793.6H460.8v-358.4zM204.8 486.4h204.8V691.2H204.8v-204.8z m358.4 102.4h102.4V742.4h-102.4v-153.6z m51.2-51.2h102.4V588.8h-102.4v-51.2z m153.6-153.6h51.2V486.4h-51.2v-102.4z m-204.8 0h102.4V486.4h-102.4v-102.4z m-460.8-204.8h102.4v153.6H102.4v-153.6z m102.4-51.2h102.4v102.4H204.8v-102.4z m-102.4-153.6h51.2v153.6H102.4v-153.6z m153.6 307.2h256v51.2H256v-51.2z m51.2-102.4h102.4v102.4H307.2v-102.4z m153.6-102.4h51.2v153.6H460.8v-153.6z m-153.6-102.4h102.4v153.6H307.2v-153.6z m-102.4 0h102.4v51.2H204.8v-51.2z m460.8 256h102.4v102.4h-102.4v-102.4z m204.8 0h51.2v102.4h-51.2v-102.4z m-307.2-102.4h102.4v153.6h-102.4v-153.6z m153.6 0h51.2v102.4h-51.2v-102.4z m-153.6-153.6h102.4v102.4h-102.4v-102.4z"  horiz-adv-x="1024" />

    
    <glyph glyph-name="administration" unicode="&#58922;" d="M512.01024 416l-112.832-59.328 21.504 125.632-91.264 89.024 126.144 18.368L512.01024 704l56.448-114.304 126.144-18.368-91.264-88.96 21.504-125.696L512.01024 416z m447.872-32c-8.96 47.936 67.904 133.952 64 192-11.328 66.304-254.208 206.272-511.744 256C274.89024 789.76 9.09824 642.304 0.39424 576c-6.528-58.048 70.272-144.064 64-192v-128h895.488V384z m-449.024-448c-463.36 0-446.464 191.616-446.464 255.744 138.624 0 294.336-0.96 447.744 0 164.096 0.96 310.912 0 447.744 0 0-63.232 14.272-255.744-449.024-255.744z"  horiz-adv-x="1024" />

    
    <glyph glyph-name="live" unicode="&#58923;" d="M328.192 832h367.616c114.112 0 155.52-11.904 197.248-34.176 41.728-22.336 74.432-55.04 96.768-96.768 22.272-41.728 34.176-83.136 34.176-197.248v-239.616c0-114.112-11.904-155.52-34.176-197.248a232.64 232.64 0 0 0-96.768-96.768c-41.728-22.272-83.136-34.176-197.248-34.176H328.192c-114.112 0-155.52 11.904-197.248 34.176a232.64 232.64 0 0 0-96.768 96.768C11.904 108.672 0 150.08 0 264.192V503.808c0 114.112 11.904 155.52 34.176 197.248a232.64 232.64 0 0 0 96.768 96.768C172.672 820.096 214.08 832 328.192 832z m330.048-475.456a32 32 0 0 1 0 54.912L432.448 546.944a32 32 0 0 1-48.448-27.52v-270.912a32 32 0 0 1 48.448-27.456l225.792 135.488z"  horiz-adv-x="1024" />

    
    <glyph glyph-name="factory" unicode="&#58924;" d="M896-128v128a64 64 0 0 1-128 0v-128h-128V320a64 64 0 0 0 64 64h256a64 64 0 0 0 64-64v-448h-128zM128 896h256a128 128 0 0 0 128-128v-896H0V768a128 128 0 0 0 128 128z m32-192a32 32 0 0 1 0-64h192a32 32 0 0 1 0 64h-192z m0-192a32 32 0 0 1 0-64h192a32 32 0 0 1 0 64h-192z m0-192a32 32 0 0 1 0-64h192a32 32 0 0 1 0 64h-192zM768 768h128v-320h-128V768z"  horiz-adv-x="1024" />

    
    <glyph glyph-name="bill" unicode="&#58925;" d="M128 768a128 128 0 0 0 128 128h704a64 64 0 0 0 0-128c-42.688 0-64-21.312-64-64v-640H128V768z m128-192v-64h64V576H256z m0-192v-64h64V384H256z m128 192v-64h320V576H384z m0-192v-64h320V384H384z m-320-384h832a128 128 0 0 0-128-128H64a64 64 0 0 0 0 128z"  horiz-adv-x="1024" />

    
    <glyph glyph-name="deadline" unicode="&#58926;" d="M1024 576H0v27.904c0 57.088 5.952 77.76 17.088 98.56 11.136 20.928 27.52 37.312 48.384 48.448 20.864 11.136 41.6 17.088 98.56 17.088H192V896h128v-128h384V896h128v-128h27.904c57.088 0 77.76-5.952 98.56-17.088 20.928-11.136 37.312-27.52 48.448-48.384 11.136-20.864 17.088-41.6 17.088-98.56V576z m0-64v-475.904c0-57.088-5.952-77.76-17.088-98.56-11.136-20.928-27.52-37.312-48.384-48.448-20.864-11.136-41.6-17.088-98.56-17.088H164.032c-57.088 0-77.76 5.952-98.56 17.088a116.288 116.288 0 0 0-48.448 48.384C5.952-41.6 0-20.928 0 36.032V512h1024z m-320-128l-192-192-128 128-64-64 192-192 256 256-64 64z"  horiz-adv-x="1024" />

    
    <glyph glyph-name="forms" unicode="&#58928;" d="M192 896h640a128 128 0 0 0 128-128v-768a128 128 0 0 0-128-128H192a128 128 0 0 0-128 128V768a128 128 0 0 0 128 128z m64-256v-64h64V640H256z m0-192v-64h64V448H256z m0-192v-64h64v64H256z m128 384v-64h384V640H384z m0-192v-64h384V448H384z m0-192v-64h384v64H384z"  horiz-adv-x="1024" />

    
    <glyph glyph-name="monitoring" unicode="&#58929;" d="M164.096 832h439.808c57.088 0 77.76-5.952 98.56-17.088 20.928-11.136 37.312-27.52 48.448-48.384 11.136-20.864 17.088-41.6 17.088-98.56v-567.872c0-57.088-5.952-77.76-17.088-98.56-11.136-20.928-27.52-37.312-48.384-48.448-20.864-11.136-41.6-17.088-98.56-17.088H164.032c-57.088 0-77.76 5.952-98.56 17.088a116.288 116.288 0 0 0-48.448 48.384C5.952 22.4 0 43.072 0 100.032V667.968c0 57.088 5.952 77.76 17.088 98.56 11.136 20.928 27.52 37.312 48.384 48.448 20.864 11.136 41.6 17.088 98.56 17.088zM576 576a64 64 0 1 1 0 128 64 64 0 0 1 0-128z m256 0l142.272 94.848a32 32 0 0 0 49.728-26.624v-520.448a32 32 0 0 0-49.728-26.624L832 192V576z"  horiz-adv-x="1024" />

    
    <glyph glyph-name="mine" unicode="&#58930;" d="M321.408-128a352 352 0 0 0 701.184 0H321.408zM128 832v-96a32 32 0 0 1 32-32h512a32 32 0 0 1 32 32V832h64a64 64 0 0 0 64-64v-259.2a224 224 0 0 1-338.048-292.672A416.832 416.832 0 0 1 267.136-64H64a64 64 0 0 0-64 64V768a64 64 0 0 0 64 64h64z m32-256a32 32 0 0 1 0-64h192a32 32 0 0 1 0 64h-192z m0-192a32 32 0 0 1 0-64h128a32 32 0 0 1 0 64h-128z m64 512h384a32 32 0 0 0 32-32v-64a32 32 0 0 0-32-32h-384a32 32 0 0 0-32 32v64a32 32 0 0 0 32 32z m448-704a160 160 0 1 0 0 320 160 160 0 0 0 0-320z"  horiz-adv-x="1024" />

    
    <glyph glyph-name="manage" unicode="&#58931;" d="M128 320V448h160a32 32 0 0 1 32 32v192a32 32 0 0 1-32 32H128V832a64 64 0 0 0 64 64h768a64 64 0 0 0 64-64v-896a64 64 0 0 0-64-64H192a64 64 0 0 0-64 64v128h160a32 32 0 0 1 32 32v192a32 32 0 0 1-32 32H128z m704 448a64 64 0 0 1-64-64v-640a64 64 0 0 1 128 0V704a64 64 0 0 1-64 64zM32 640h192a32 32 0 0 0 32-32v-64a32 32 0 0 0-32-32h-192a32 32 0 0 0-32 32v64A32 32 0 0 0 32 640z m0-384h192a32 32 0 0 0 32-32v-64a32 32 0 0 0-32-32h-192a32 32 0 0 0-32 32v64a32 32 0 0 0 32 32z"  horiz-adv-x="1024" />

    
    <glyph glyph-name="profile" unicode="&#58932;" d="M64 896h320a64 64 0 0 0 64-64v-320a64 64 0 0 0-64-64H64a64 64 0 0 0-64 64V832a64 64 0 0 0 64 64z m0-576h320a64 64 0 0 0 64-64v-320a64 64 0 0 0-64-64H64a64 64 0 0 0-64 64v320a64 64 0 0 0 64 64z m576 576h320a64 64 0 0 0 64-64v-320a64 64 0 0 0-64-64h-320a64 64 0 0 0-64 64V832a64 64 0 0 0 64 64z m0-576h320a64 64 0 0 0 64-64v-320a64 64 0 0 0-64-64h-320a64 64 0 0 0-64 64v320a64 64 0 0 0 64 64z"  horiz-adv-x="1024" />

    
    <glyph glyph-name="shop" unicode="&#58933;" d="M960.04864 394.432V-64a64 64 0 0 0-64-64H128.04864a64 64 0 0 0-64 64V394.432C19.88864 414.016-6.35136 459.264 1.39264 512L10.92864 576 64.04864 832c5.248 35.328 32 64 64 64h768c32 0 58.752-28.672 64-64l53.184-256 9.472-64c7.744-52.736-18.496-97.92-62.656-117.568z m-64-9.792c-67.456 6.4-123.776 60.928-128.64 127.36 5.184-70.72-49.856-128-122.944-128C571.31264 384 512.04864 441.28 512.04864 512c0-70.72-59.264-128-132.416-128-73.088 0-128.128 57.28-122.88 128C251.82464 445.568 195.50464 391.04 128.04864 384.64V128h768V384.64z"  horiz-adv-x="1024" />

    
    <glyph glyph-name="plan" unicode="&#58934;" d="M164.096 896h695.808c57.088 0 77.76-5.952 98.56-17.088 20.928-11.136 37.312-27.52 48.448-48.384 11.136-20.864 17.088-41.6 17.088-98.56v-695.872c0-57.088-5.952-77.76-17.088-98.56-11.136-20.928-27.52-37.312-48.384-48.448-20.864-11.136-41.6-17.088-98.56-17.088H164.032c-57.088 0-77.76 5.952-98.56 17.088a116.288 116.288 0 0 0-48.448 48.384C5.952-41.6 0-20.928 0 36.032V731.968c0 57.088 5.952 77.76 17.088 98.56 11.136 20.928 27.52 37.312 48.384 48.448C86.4 890.048 107.072 896 164.032 896zM704 160a32 32 0 0 0 32 32h77.952c28.544 0 38.848 2.944 49.28 8.576a58.176 58.176 0 0 1 24.192 24.192c5.632 10.432 8.576 20.736 8.576 49.28V685.952c0 28.544-2.944 38.848-8.576 49.28a58.176 58.176 0 0 1-24.192 24.192c-10.432 5.632-20.736 8.576-49.28 8.576H210.048c-28.544 0-38.848-2.944-49.28-8.576a58.176 58.176 0 0 1-24.192-24.192c-5.632-10.432-8.576-20.736-8.576-49.28v-411.904c0-28.544 2.944-38.848 8.576-49.28 5.568-10.432 13.76-18.624 24.192-24.192 10.432-5.632 20.736-8.576 49.28-8.576H288a32 32 0 0 0 32-32v-77.952c0-28.544 2.944-38.848 8.576-49.28 5.568-10.432 13.76-18.624 24.192-24.192 10.432-5.632 20.736-8.576 49.28-8.576h219.904c28.544 0 38.848 2.944 49.28 8.576a58.176 58.176 0 0 1 24.192 24.192c5.632 10.432 8.576 20.736 8.576 49.28V160zM288 640h448a32 32 0 1 0 0-64h-448a32 32 0 0 0 0 64z m0-192h448a32 32 0 1 0 0-64h-448a32 32 0 0 0 0 64z"  horiz-adv-x="1024" />

    
    <glyph glyph-name="record" unicode="&#58935;" d="M576 832v-150.976c0-14.272 1.472-19.456 4.288-24.64a29.056 29.056 0 0 1 12.096-12.16c5.184-2.752 10.368-4.224 24.64-4.224h173.952c14.272 0 19.456 1.472 24.64 4.288a29.056 29.056 0 0 1 12.16 12.096c2.752 5.184 4.224 10.368 4.224 24.64V830.912c31.168-2.176 46.784-7.616 62.528-16 20.864-11.136 37.248-27.52 48.384-48.384 11.136-20.864 17.088-41.6 17.088-98.56v-631.872c0-57.088-5.952-77.76-17.088-98.56-11.136-20.928-27.52-37.312-48.384-48.448-20.864-11.136-41.6-17.088-98.56-17.088H228.032c-57.088 0-77.76 5.952-98.56 17.088a116.288 116.288 0 0 0-48.448 48.384c-11.136 20.864-17.088 41.6-17.088 98.56V667.968c0 57.088 5.952 77.76 17.088 98.56 11.136 20.928 27.52 37.312 48.384 48.448 15.744 8.384 31.36 13.824 62.528 16v-149.888c0-14.272 1.472-19.456 4.288-24.64a29.056 29.056 0 0 1 12.096-12.16c5.184-2.752 10.368-4.224 24.64-4.224h173.952c14.272 0 19.456 1.472 24.64 4.288a29.056 29.056 0 0 1 12.16 12.096C446.464 661.568 448 666.752 448 680.96V832h128zM288 448a32 32 0 0 1 0-64h448a32 32 0 1 1 0 64h-448z m0-256a32 32 0 1 1 0-64h448a32 32 0 1 1 0 64h-448z m9.024 704h45.952c14.272 0 19.456-1.472 24.64-4.288a29.056 29.056 0 0 0 12.16-12.096C382.464 874.432 384 869.248 384 855.04v-109.952c0-14.272-1.472-19.456-4.288-24.64a29.056 29.056 0 0 0-12.096-12.16C362.432 705.536 357.248 704 343.04 704h-45.952c-14.272 0-19.456 1.472-24.64 4.288a29.056 29.056 0 0 0-12.16 12.096C257.536 725.568 256 730.752 256 744.96V854.976c0 14.272 1.472 19.456 4.288 24.64a29.056 29.056 0 0 0 12.096 12.16C277.568 894.464 282.752 896 296.96 896z m384 0h45.952c14.272 0 19.456-1.472 24.64-4.288a29.056 29.056 0 0 0 12.16-12.096c2.752-5.184 4.224-10.368 4.224-24.64v-109.952c0-14.272-1.472-19.456-4.288-24.64a29.056 29.056 0 0 0-12.096-12.16c-5.184-2.752-10.368-4.224-24.64-4.224h-45.952c-14.272 0-19.456 1.472-24.64 4.288a29.056 29.056 0 0 0-12.16 12.096C641.536 725.568 640 730.752 640 744.96V854.976c0 14.272 1.472 19.456 4.288 24.64a29.056 29.056 0 0 0 12.096 12.16c5.184 2.752 10.368 4.224 24.64 4.224z"  horiz-adv-x="1024" />

    
    <glyph glyph-name="warning" unicode="&#58936;" d="M512 896a384 384 0 0 0 384-384v-448H128V512a384 384 0 0 0 384 384zM64 0h896a64 64 0 0 0 0-128H64a64 64 0 0 0 0 128zM576 704L384 448h96L448 192l192 256H544L576 704z"  horiz-adv-x="1024" />

    
    <glyph glyph-name="truck" unicode="&#58937;" d="M0 192V428.608a64 64 0 0 0 10.752 35.52l98.24 147.392A64 64 0 0 0 162.24 640H320a64 64 0 0 0 64-64v-320h576a64 64 0 0 0 64-64v-128a64 64 0 0 0-64-64h-3.2a160 160 0 0 1-313.6 0h-262.4a160 160 0 0 1-313.6 0H64a64 64 0 0 0-64 64v128zM512 896h448a64 64 0 0 0 64-64v-448a64 64 0 0 0-64-64H448V832a64 64 0 0 0 64 64zM154.624 430.272L209.152 512H288a32 32 0 0 1 0 64H174.848L101.376 465.728a32 32 0 0 1 53.248-35.456zM800-128a96 96 0 1 0 0 192 96 96 0 0 0 0-192z m-576 0a96 96 0 1 0 0 192 96 96 0 0 0 0-192z"  horiz-adv-x="1024" />

    
    <glyph glyph-name="summary" unicode="&#58938;" d="M246.144 896h531.712c85.568 0 116.608-8.96 147.904-25.6 31.36-16.768 55.872-41.344 72.576-72.64 16.768-31.296 25.664-62.336 25.664-147.84v-339.84c0-85.504-8.96-116.544-25.6-147.84a174.464 174.464 0 0 0-72.64-72.576c-31.296-16.768-62.336-25.664-147.84-25.664h-531.84c-85.504 0-116.544 8.96-147.84 25.6A174.464 174.464 0 0 0 25.6 162.304C8.896 193.536 0 224.576 0 310.08v339.84c0 85.504 8.96 116.544 25.6 147.84A174.464 174.464 0 0 0 98.304 870.4C129.536 887.104 160.576 896 246.08 896zM320 0h384a64 64 0 0 0 0-128H320a64 64 0 0 0 0 128z m541.12 448h-148.352L504.96 631.04a35.84 35.84 0 0 1-26.88 8.832 36.224 36.224 0 0 1-25.088-12.416L303.104 448h-140.16C143.552 448 128 433.664 128 416s15.616-32 34.88-32h157.568c10.88 0 21.056 4.608 27.776 12.544l136.576 163.584 189.888-167.168c6.528-5.76 15.232-8.96 24.128-8.96h162.304c19.2 0 34.88 14.336 34.88 32s-15.616 32-34.88 32z"  horiz-adv-x="1024" />

    
    <glyph glyph-name="webcam" unicode="&#58939;" d="M384-64l64 128h128l64-128h96a32 32 0 1 0 0-64h-448a32 32 0 1 0 0 64H384zM246.144 896h531.712c85.568 0 116.608-8.96 147.904-25.6 31.36-16.768 55.872-41.344 72.576-72.64 16.768-31.296 25.664-62.336 25.664-147.84v-275.84c0-85.504-8.96-116.544-25.6-147.84a174.464 174.464 0 0 0-72.64-72.576c-31.296-16.768-62.336-25.664-147.84-25.664h-531.84c-85.504 0-116.544 8.96-147.84 25.6A174.464 174.464 0 0 0 25.6 226.304C8.896 257.536 0 288.576 0 374.08v275.84c0 85.504 8.96 116.544 25.6 147.84A174.464 174.464 0 0 0 98.304 870.4C129.536 887.104 160.576 896 246.08 896zM512 320a192 192 0 1 1 0 384 192 192 0 0 1 0-384zM192 640a64 64 0 1 1 0 128 64 64 0 0 1 0-128z"  horiz-adv-x="1024" />

    
    <glyph glyph-name="user" unicode="&#58940;" d="M416 384a224 224 0 1 0 0 448 224 224 0 0 0 0-448zM0-64c0 247.424 186.24 448 416 448s416-200.576 416-448H0z m886.784 128a448.768 448.768 0 0 1-298.752 334.72A255.808 255.808 0 0 1 704 613.12a255.36 255.36 0 0 1-85.504 190.912c7.04 0.64 14.272 1.024 21.504 1.024 121.216 0 219.456-99.328 219.456-221.824a222.336 222.336 0 0 0-90.56-179.584C917.568 352.064 1024 215.04 1024 64h-137.216z"  horiz-adv-x="1024" />

    
    <glyph glyph-name="detection" unicode="&#58941;" d="M890.752 95.744l100.992-100.992a64 64 0 1 0-90.496-90.496l-100.992 100.992-45.504 45.44 90.496 90.56 45.504-45.44zM448 0A448 448 0 1 0 448 896a448 448 0 0 0 0-896z m97.92 128l87.488 255.872L736.64 384A31.68 31.68 0 0 1 768 416a31.744 31.744 0 0 1-32.64 30.848l-148.224-0.96-41.152-120.32L416.768 704 331.52 445.504l-171.072 3.2A31.744 31.744 0 0 1 128 417.792a31.68 31.68 0 0 1 31.552-31.872l218.304-3.84 39.936 121.152L545.92 128z"  horiz-adv-x="1024" />

    
    <glyph glyph-name="drug" unicode="&#58942;" d="M921.6 790.4a320 320 0 0 0 0-452.608L554.88-28.8a320 320 0 0 0-452.48 452.48l366.592 366.72a320 320 0 0 0 452.48 0z m-90.56-90.56a192 192 0 0 1-271.488 0L378.496 518.848l271.552-271.552 180.992 180.992a192 192 0 0 1 0 271.552z"  horiz-adv-x="1024" />

    
    <glyph glyph-name="devices" unicode="&#58943;" d="M512-128A512 512 0 1 0 512 896a512 512 0 0 0 0-1024z m271.552 240.448A382.848 382.848 0 0 1 896 384c0 103.232-40.96 200-112.448 271.552A382.848 382.848 0 0 1 512 768c-103.232 0-200-40.96-271.552-112.448A382.848 382.848 0 0 1 128 384c0-103.232 40.96-200 112.448-271.552a32 32 0 0 1 45.248 45.248A318.848 318.848 0 0 0 192 384c0 86.08 34.112 166.656 93.696 226.304A318.848 318.848 0 0 0 512 704c86.08 0 166.656-34.112 226.304-93.696A318.848 318.848 0 0 0 832 384a318.848 318.848 0 0 0-93.696-226.304 32 32 0 0 1 45.248-45.248z m-316.8 226.304a64 64 0 0 1 90.496 0C573.888 355.392 601.472 413.184 640 512c-98.816-38.528-156.608-66.112-173.248-82.752a64 64 0 0 1 0-90.496z"  horiz-adv-x="1024" />

    
    <glyph glyph-name="cosmetic" unicode="&#58944;" d="M246.144 640h531.712c85.568 0 116.608-8.96 147.904-25.6 31.36-16.768 55.872-41.344 72.576-72.64 16.768-31.296 25.664-62.336 25.664-147.84v-275.84c0-85.504-8.96-116.544-25.6-147.84a174.464 174.464 0 0 0-72.64-72.576c-31.296-16.768-62.336-25.664-147.84-25.664h-531.84c-85.504 0-116.544 8.96-147.84 25.6A174.464 174.464 0 0 0 25.6-29.696C8.896 1.536 0 32.576 0 118.08v275.84c0 85.504 8.96 116.544 25.6 147.84A174.464 174.464 0 0 0 98.304 614.4C129.536 631.104 160.576 640 246.08 640zM192 512a64 64 0 0 1-64-64v-384a64 64 0 0 1 128 0V448a64 64 0 0 1-64 64z m80.32 384h479.36c26.432 0 37.12-2.944 47.552-8.576 10.432-5.568 18.624-13.76 24.192-24.192 5.632-10.432 8.576-21.12 8.576-47.552v-31.36c0-26.432-2.944-37.12-8.576-47.552a58.176 58.176 0 0 0-24.192-24.192c-10.432-5.632-21.12-8.576-47.552-8.576h-479.36c-26.432 0-37.12 2.944-47.552 8.576a58.176 58.176 0 0 0-24.192 24.192C194.944 747.2 192 757.888 192 784.32v31.36c0 26.432 2.944 37.12 8.576 47.552a58.176 58.176 0 0 0 24.192 24.192C235.2 893.056 245.888 896 272.32 896z"  horiz-adv-x="1024" />

    
    <glyph glyph-name="food" unicode="&#58945;" d="M0 448V512h1024v-64a511.872 511.872 0 0 0-263.936-448H263.936A511.872 511.872 0 0 0 0 448z m288-512h448a32 32 0 1 0 0-64h-448a32 32 0 1 0 0 64zM64 576a256.128 256.128 0 0 0 495.872 0H64z m359.808 235.904A320 320 0 0 0 960 576H625.536a320.576 320.576 0 0 1-201.728 235.904z"  horiz-adv-x="1024" />

    
    <glyph glyph-name="medical" unicode="&#58946;" d="M256 640v40.512c0 52.672 5.504 71.808 15.808 91.072 10.24 19.2 25.408 34.368 44.608 44.608 19.264 10.304 38.4 15.808 91.072 15.808h209.024c52.672 0 71.808-5.504 91.072-15.808 19.2-10.24 34.368-25.408 44.608-44.608 10.304-19.264 15.808-38.4 15.808-91.072V640h9.856c85.568 0 116.608-8.96 147.904-25.6 31.36-16.768 55.872-41.344 72.576-72.64 16.768-31.296 25.664-62.336 25.664-147.84v-275.84c0-85.504-8.96-116.544-25.6-147.84a174.464 174.464 0 0 0-72.64-72.576c-31.296-16.768-62.336-25.664-147.84-25.664h-531.84c-85.504 0-116.544 8.96-147.84 25.6A174.464 174.464 0 0 0 25.6-29.696C8.896 1.536 0 32.576 0 118.08v275.84c0 85.504 8.96 116.544 25.6 147.84A174.464 174.464 0 0 0 98.304 614.4C129.536 631.104 160.576 640 246.08 640H256z m192-320H361.024c-14.272 0-19.456-1.472-24.64-4.288a29.056 29.056 0 0 1-12.16-12.096C321.536 298.432 320 293.248 320 279.04v-45.952c0-14.272 1.472-19.456 4.288-24.64a29.056 29.056 0 0 1 12.096-12.16c5.184-2.752 10.368-4.224 24.64-4.224H448v-86.976c0-14.272 1.472-19.456 4.288-24.64a29.056 29.056 0 0 1 12.096-12.16c5.184-2.752 10.368-4.224 24.64-4.224h45.952c14.272 0 19.456 1.472 24.64 4.288a29.056 29.056 0 0 1 12.16 12.096c2.752 5.184 4.224 10.368 4.224 24.64V192h86.976c14.272 0 19.456 1.472 24.64 4.288a29.056 29.056 0 0 1 12.16 12.096c2.752 5.184 4.224 10.368 4.224 24.64v45.952c0 14.272-1.472 19.456-4.288 24.64a29.056 29.056 0 0 1-12.096 12.16C682.432 318.464 677.248 320 663.04 320H576V406.976c0 14.272-1.472 19.456-4.288 24.64a29.056 29.056 0 0 1-12.096 12.16C554.432 446.464 549.248 448 535.04 448h-45.952c-14.272 0-19.456-1.472-24.64-4.288a29.056 29.056 0 0 1-12.16-12.096C449.536 426.432 448 421.248 448 407.04V320z m256 360.512c0 38.4-2.176 49.536-8.192 60.864a43.392 43.392 0 0 1-18.432 18.432c-11.328 6.016-22.464 8.192-60.8 8.192H407.424c-38.4 0-49.536-2.176-60.864-8.192a43.392 43.392 0 0 1-18.432-18.432c-6.016-11.328-8.192-22.464-8.192-60.8V640h384v40.512z"  horiz-adv-x="1024" />

    
    <glyph glyph-name="transaction" unicode="&#58947;" d="M243.136 254.08a96 96 0 1 1 54.848-32.96L396.8 385.6a96.448 96.448 0 0 1 48.192 2.56l83.264-111.104a96 96 0 1 1 148.8 13.376l111.04 222.016a96 96 0 1 1-57.216 28.736L619.712 318.976a96.96 96.96 0 0 1-40.256-3.584L496 426.624a96 96 0 1 1-154.112-7.936L243.136 254.08zM246.144 896h531.712c85.568 0 116.608-8.96 147.904-25.6 31.36-16.768 55.872-41.344 72.576-72.64 16.768-31.296 25.664-62.336 25.664-147.84v-531.84c0-85.504-8.96-116.544-25.6-147.84a174.464 174.464 0 0 0-72.64-72.576c-31.296-16.768-62.336-25.664-147.84-25.664h-531.84c-85.504 0-116.544 8.96-147.84 25.6A174.464 174.464 0 0 0 25.6-29.696C8.896 1.536 0 32.576 0 118.08v531.84c0 85.504 8.96 116.544 25.6 147.84A174.464 174.464 0 0 0 98.304 870.4C129.536 887.104 160.576 896 246.08 896z"  horiz-adv-x="1024" />

    
    <glyph glyph-name="arrow" unicode="&#58948;" d="M640 448v-544a32 32 0 0 0-32-32h-192a32 32 0 0 0-32 32V448H197.568a32 32 0 0 0-24.32 52.8L487.68 867.648a32 32 0 0 0 48.64 0l314.432-366.848a32 32 0 0 0-24.32-52.8H640z"  horiz-adv-x="1024" />

    
    <glyph glyph-name="query" unicode="&#58949;" d="M448 0A448 448 0 1 0 448 896a448 448 0 0 0 0-896zM199.04 696.96A350.912 350.912 0 0 1 96 448c0-94.592 37.504-183.36 103.04-248.96a32 32 0 0 1 45.312 45.312A286.976 286.976 0 0 0 160 448c0 77.44 30.72 149.952 84.352 203.648a32 32 0 1 1-45.248 45.248z m653.44-562.944l130.816-130.816a64 64 0 1 0-90.496-90.496l-130.816 130.816a515.072 515.072 0 0 1 90.496 90.496z"  horiz-adv-x="1024" />

    


  </font>
</defs>
</svg>
